<svg width="33" height="36" viewBox="0 0 33 36" fill="none" xmlns="http://www.w3.org/2000/svg">
<path d="M14.0834 34.5001H5.83341C4.86095 34.5001 3.92832 34.1138 3.24069 33.4261C2.55306 32.7385 2.16675 31.8059 2.16675 30.8334V19.8334C2.16675 18.8609 2.55306 17.9283 3.24069 17.2407C3.92832 16.553 4.86095 16.1667 5.83341 16.1667H24.1667C25.1392 16.1667 26.0718 16.553 26.7595 17.2407C27.4471 17.9283 27.8334 18.8609 27.8334 19.8334V20.7501M7.66675 16.1667V8.83339C7.66675 6.88847 8.43936 5.02321 9.81463 3.64794C11.1899 2.27268 13.0552 1.50006 15.0001 1.50006C16.945 1.50006 18.8103 2.27268 20.1855 3.64794C21.5608 5.02321 22.3334 6.88847 22.3334 8.83339V16.1667M20.5001 30.8334L24.1667 34.5001L31.5001 27.1667M13.1667 25.3334C13.1667 25.8196 13.3599 26.2859 13.7037 26.6298C14.0475 26.9736 14.5139 27.1667 15.0001 27.1667C15.4863 27.1667 15.9526 26.9736 16.2964 26.6298C16.6403 26.2859 16.8334 25.8196 16.8334 25.3334C16.8334 24.8472 16.6403 24.3808 16.2964 24.037C15.9526 23.6932 15.4863 23.5001 15.0001 23.5001C14.5139 23.5001 14.0475 23.6932 13.7037 24.037C13.3599 24.3808 13.1667 24.8472 13.1667 25.3334Z" stroke="#2761FC" stroke-width="2.5" stroke-linecap="round" stroke-linejoin="round"/>
</svg>
