<svg width="33" height="38" viewBox="0 0 33 38" fill="none" xmlns="http://www.w3.org/2000/svg">
<path d="M2 34.5V30.8333C2 28.8884 2.77262 27.0232 4.14788 25.6479C5.52315 24.2726 7.38841 23.5 9.33333 23.5H13M31.3333 25.3333C31.3333 32.6667 26.75 36.3333 24.9167 36.3333C23.0833 36.3333 18.5 32.6667 18.5 25.3333C20.3333 25.3333 23.0833 24.4167 24.9167 22.5833C26.75 24.4167 29.5 25.3333 31.3333 25.3333ZM5.66667 8.83333C5.66667 10.7783 6.43928 12.6435 7.81455 14.0188C9.18982 15.394 11.0551 16.1667 13 16.1667C14.9449 16.1667 16.8102 15.394 18.1854 14.0188C19.5607 12.6435 20.3333 10.7783 20.3333 8.83333C20.3333 6.88841 19.5607 5.02315 18.1854 3.64788C16.8102 2.27262 14.9449 1.5 13 1.5C11.0551 1.5 9.18982 2.27262 7.81455 3.64788C6.43928 5.02315 5.66667 6.88841 5.66667 8.83333Z" stroke="#2761FC" stroke-width="2.5" stroke-linecap="round" stroke-linejoin="round"/>
</svg>
