<svg width="20" height="20" viewBox="0 0 20 20" fill="none" xmlns="http://www.w3.org/2000/svg">
<g id="tabler-icon-lock-check">
<path id="Vector" d="M9.58335 17.5H5.83335C5.39133 17.5 4.9674 17.3244 4.65484 17.0118C4.34228 16.6993 4.16669 16.2754 4.16669 15.8333V10.8333C4.16669 10.3913 4.34228 9.96738 4.65484 9.65482C4.9674 9.34226 5.39133 9.16667 5.83335 9.16667H14.1667C14.6087 9.16667 15.0326 9.34226 15.3452 9.65482C15.6578 9.96738 15.8334 10.3913 15.8334 10.8333V11.25M6.66669 9.16667V5.83333C6.66669 4.94928 7.01788 4.10143 7.643 3.47631C8.26812 2.85119 9.11597 2.5 10 2.5C10.8841 2.5 11.7319 2.85119 12.357 3.47631C12.9822 4.10143 13.3334 4.94928 13.3334 5.83333V9.16667M12.5 15.8333L14.1667 17.5L17.5 14.1667M9.16669 13.3333C9.16669 13.5543 9.25448 13.7663 9.41076 13.9226C9.56705 14.0789 9.77901 14.1667 10 14.1667C10.221 14.1667 10.433 14.0789 10.5893 13.9226C10.7456 13.7663 10.8334 13.5543 10.8334 13.3333C10.8334 13.1123 10.7456 12.9004 10.5893 12.7441C10.433 12.5878 10.221 12.5 10 12.5C9.77901 12.5 9.56705 12.5878 9.41076 12.7441C9.25448 12.9004 9.16669 13.1123 9.16669 13.3333Z" stroke="#EAEAF0" stroke-width="1.5" stroke-linecap="round" stroke-linejoin="round"/>
</g>
</svg>
