<svg width="20" height="20" viewBox="0 0 20 20" fill="none" xmlns="http://www.w3.org/2000/svg">
<g id="tabler-icon-spy-off">
<path id="Vector" d="M2.5 9.16667H9.16667M12.5 9.16667H17.5M4.16667 9.16667V5.83333C4.16667 5.3575 4.3 4.9125 4.53083 4.53333M6.66667 3.33333H13.3333C13.9964 3.33333 14.6323 3.59673 15.1011 4.06557C15.5699 4.53441 15.8333 5.17029 15.8333 5.83333V9.16667M8.33333 14.1667C8.33333 14.495 8.26867 14.8201 8.14303 15.1234C8.0174 15.4267 7.83325 15.7023 7.6011 15.9344C7.36895 16.1666 7.09336 16.3507 6.79004 16.4764C6.48673 16.602 6.16164 16.6667 5.83333 16.6667C5.50503 16.6667 5.17994 16.602 4.87662 16.4764C4.57331 16.3507 4.29771 16.1666 4.06557 15.9344C3.83342 15.7023 3.64927 15.4267 3.52363 15.1234C3.398 14.8201 3.33333 14.495 3.33333 14.1667C3.33333 13.8384 3.398 13.5133 3.52363 13.21C3.64927 12.9066 3.83342 12.631 4.06557 12.3989C4.29771 12.1668 4.57331 11.9826 4.87662 11.857C5.17994 11.7313 5.50503 11.6667 5.83333 11.6667C6.16164 11.6667 6.48673 11.7313 6.79004 11.857C7.09336 11.9826 7.36895 12.1668 7.6011 12.3989C7.83325 12.631 8.0174 12.9066 8.14303 13.21C8.26867 13.5133 8.33333 13.8384 8.33333 14.1667ZM8.33333 14.1667H11.6667M12.4 12.3975C12.1676 12.6294 11.9832 12.9049 11.8573 13.2081C11.7313 13.5113 11.6664 13.8364 11.6661 14.1647C11.6657 14.4931 11.7301 14.8182 11.8555 15.1217C11.9808 15.4251 12.1647 15.7009 12.3967 15.9333C12.6286 16.1657 12.9041 16.3501 13.2073 16.4761C13.5105 16.602 13.8356 16.667 14.1639 16.6673C14.4922 16.6676 14.8174 16.6032 15.1209 16.4779C15.4243 16.3525 15.7001 16.1686 15.9325 15.9367M16.4242 13.0917C16.176 12.5722 15.7567 12.1538 15.2367 11.9067M2.5 2.5L17.5 17.5" stroke="#EAEAF0" stroke-width="1.5" stroke-linecap="round" stroke-linejoin="round"/>
</g>
</svg>
