<svg width="36" height="36" viewBox="0 0 36 36" fill="none" xmlns="http://www.w3.org/2000/svg">
<path d="M1.49927 16.1667H16.1659M23.4993 16.1667H34.4993M5.16593 16.1667V8.83333C5.16593 7.7865 5.45927 6.8075 5.9671 5.97333M10.6659 3.33333H25.3326C26.7913 3.33333 28.1902 3.9128 29.2217 4.94425C30.2531 5.9757 30.8326 7.37464 30.8326 8.83333V16.1667M14.3326 27.1667C14.3326 27.8889 14.1903 28.6041 13.9139 29.2714C13.6375 29.9387 13.2324 30.545 12.7217 31.0558C12.211 31.5665 11.6047 31.9716 10.9374 32.248C10.2701 32.5244 9.55487 32.6667 8.8326 32.6667C8.11033 32.6667 7.39513 32.5244 6.72784 32.248C6.06055 31.9716 5.45424 31.5665 4.94351 31.0558C4.43279 30.545 4.02766 29.9387 3.75126 29.2714C3.47486 28.6041 3.3326 27.8889 3.3326 27.1667C3.3326 26.4444 3.47486 25.7292 3.75126 25.0619C4.02766 24.3946 4.43279 23.7883 4.94351 23.2776C5.45424 22.7669 6.06055 22.3617 6.72784 22.0853C7.39513 21.8089 8.11033 21.6667 8.8326 21.6667C9.55487 21.6667 10.2701 21.8089 10.9374 22.0853C11.6047 22.3617 12.211 22.7669 12.7217 23.2776C13.2324 23.7883 13.6375 24.3946 13.9139 25.0619C14.1903 25.7292 14.3326 26.4444 14.3326 27.1667ZM14.3326 27.1667H21.6659M23.2793 23.2745C22.7681 23.7848 22.3623 24.3908 22.0853 25.0578C21.8082 25.7249 21.6653 26.4401 21.6646 27.1624C21.6639 27.8847 21.8055 28.6001 22.0813 29.2677C22.3571 29.9353 22.7617 30.5421 23.272 31.0533C23.7823 31.5646 24.3882 31.9703 25.0553 32.2474C25.7224 32.5244 26.4375 32.6674 27.1599 32.668C27.8822 32.6687 28.5976 32.5271 29.2652 32.2513C29.9328 31.9755 30.5396 31.5709 31.0508 31.0607M32.1325 24.8017C31.5864 23.6587 30.664 22.7383 29.52 22.1947M1.49927 1.5L34.4993 34.5" stroke="#2761FC" stroke-width="2.5" stroke-linecap="round" stroke-linejoin="round"/>
</svg>
